Coordinates
version=1
nRows=12
nColumns=34
inDegrees=yes

Units are S.I. units (second, meters, Newtons, ...)
If the header above contains a line with 'inDegrees', this indicates whether rotational values are in degrees (yes) or radians (no).

endheader
time	pelvis_tilt	pelvis_list	pelvis_rotation	pelvis_tx	pelvis_ty	pelvis_tz	hip_flexion_r	hip_adduction_r	hip_rotation_r	knee_angle_r	ankle_angle_r	subtalar_angle_r	mtp_angle_r	hip_flexion_l	hip_adduction_l	hip_rotation_l	knee_angle_l	ankle_angle_l	subtalar_angle_l	mtp_angle_l	lumbar_extension	lumbar_bending	lumbar_rotation	arm_flex_r	arm_add_r	arm_rot_r	elbow_flex_r	pro_sup_r	arm_flex_l	arm_add_l	arm_rot_l	elbow_flex_l	pro_sup_l
      0.00000000	      0.94314284	     -2.35696670	    -30.12947001	      3.01802682	      0.92648579	      0.87751914	     41.19323788	     11.25211295	    -12.50042778	     32.08751835	     13.68632200	      5.42894199	      0.00000000	     34.12921556	     12.53021052	      0.67845746	     11.86644393	    -19.61661216	    -13.72174269	      0.00000000	    -24.69912315	     -9.73566783	     -5.09564465	      7.93485346	      0.24894274	     34.53103821	     81.70608833	    118.68514945	      4.76826852	      1.03089121	     25.80378811	    101.26961773	    119.74817643
      0.01666670	      1.51835862	     -2.39563797	    -30.08627796	      3.01829996	      0.92792061	      0.87809035	     40.52003366	     11.05384071	    -12.08654914	     32.04990603	     13.77460918	      5.66139193	      0.00000000	     33.43723333	     12.63749481	     -0.31388996	     11.74143848	    -18.59933815	    -11.91771126	      0.00000000	    -25.21966265	    -10.06105221	     -5.65464445	      8.34676782	      0.53781549	     35.25715276	     80.85023558	    118.95937003	      4.71066140	      0.59096972	     25.88036057	    101.71133507	    119.49749503
      0.03333330	      1.52113691	     -2.47083120	    -29.96558807	      3.01886935	      0.92787416	      0.87753599	     40.51307759	     11.00054571	    -11.65538179	     32.14958619	     13.74305750	      5.82815705	      0.00000000	     33.47022402	     12.65037163	     -0.31584307	     11.92303056	    -18.43969574	    -11.88468121	      0.00000000	    -25.28148479	     -9.86612313	     -5.73157491	      8.13062323	      0.57915141	     35.22251788	     80.95874227	    118.99975669	      4.77745422	      0.69880003	     25.66654005	    101.68635038	    119.46898664
      0.05000000	      1.68105885	     -2.43709997	    -29.71245444	      3.01939411	      0.92786442	      0.87791816	     40.30317000	     10.83070754	    -11.25891749	     32.12560047	     13.69169899	      5.92934246	      0.00000000	     33.53112776	     12.85936453	     -0.25493037	     12.38709840	    -18.14710918	    -11.92546034	      0.00000000	    -25.29446829	     -9.88832851	     -5.81512207	      7.63953428	      0.77103777	     35.42076787	     81.04731047	    119.06344566	      5.08022370	      0.67606350	     25.19669173	    101.31466600	    119.42407508
      0.06666670	      1.97729868	     -2.48023868	    -29.39569425	      3.02029703	      0.92798530	      0.87845239	     39.99752927	     10.65582931	    -10.80757923	     32.28827626	     13.75724730	      5.97294518	      0.00000000	     33.56964045	     13.08570806	     -0.19969775	     13.18049396	    -17.69139810	    -12.02361916	      0.00000000	    -25.36752593	     -9.86210181	     -5.86043722	      7.26641949	      1.12913882	     35.41039349	     81.07640529	    119.13145378	      5.33141902	      0.67839770	     24.59249500	    100.80069018	    119.37062365
      0.08333330	      2.37193225	     -2.58821588	    -29.12116073	      3.02173829	      0.92814501	      0.87897817	     39.62111274	     10.48524236	    -10.35853611	     32.65996052	     14.01675314	      5.93750266	      0.00000000	     33.56695915	     13.30615631	     -0.14781195	     14.21005257	    -17.12922416	    -12.10443253	      0.00000000	    -25.49364053	     -9.77076494	     -5.90235967	      7.03988804	      1.52457466	     35.21404336	     81.17941974	    119.20066744	      5.36761377	      0.69789956	     24.12998100	    100.24673467	    119.33467351
      0.10000000	      2.83607552	     -2.77643841	    -28.79263505	      3.02358209	      0.92837562	      0.87948887	     39.14704209	     10.34122462	    -10.00759179	     33.09891225	     14.55723749	      5.74579177	      0.00000000	     33.50087431	     13.50152644	     -0.21478199	     15.36536398	    -16.25939749	    -12.06042035	      0.00000000	    -25.68423717	     -9.61693331	     -5.86656893	      6.65288680	      1.90834167	     34.87000853	     81.28959226	    119.31447597	      5.49338470	      0.81442956	     23.71170783	     99.74670023	    119.31892712
      0.11666670	      3.19485805	     -2.90568216	    -28.56033924	      3.02470377	      0.92844789	      0.88032822	     38.79649400	     10.27752105	     -9.73325537	     33.45177480	     15.10557531	      5.71711915	      0.00000000	     33.55196961	     13.63557283	     -0.13289914	     16.41320082	    -15.85234317	    -11.99799035	      0.00000000	    -25.78001604	     -9.62365412	     -5.70107027	      6.67856181	      2.22299832	     34.83516239	     81.28675973	    119.38792153	      5.61316924	      0.73266217	     23.64715845	     99.21120871	    119.32785075
      0.13333330	      3.49912628	     -2.99941222	    -28.33633823	      3.02599732	      0.92868666	      0.88153069	     38.40012543	     10.15611160	     -9.91410646	     33.69681582	     15.47732449	      5.55873950	      0.00000000	     33.48522282	     13.74572090	     -0.19738770	     17.14659595	    -15.36111476	    -11.97897999	      0.00000000	    -25.78261077	     -9.69163023	     -5.41017711	      6.65830193	      2.47250089	     34.89401302	     81.15740208	    119.47236551	      5.65484275	      0.65287218	     23.84276265	     98.53287288	    119.36257994
      0.15000000	      3.84144464	     -3.02815536	    -28.06526740	      3.02722265	      0.92911209	      0.88261667	     38.06074291	      9.85630890	    -10.41109692	     34.06481895	     15.02633956	      5.25428061	      0.00000000	     33.36300827	     13.93001672	     -0.38652999	     17.75041906	    -15.04845975	    -11.81491523	      0.00000000	    -25.89976622	     -9.80625898	     -5.14192577	      6.58893781	      2.69904785	     34.72051765	     81.17294765	    119.53817029	      5.74422820	      0.75805461	     23.86493574	     97.96755590	    119.39596194
      0.16666670	      4.18805796	     -3.29446270	    -27.65681866	      3.02801999	      0.92995859	      0.88405216	     37.79396633	      9.68448478	    -11.17206625	     34.67723207	     14.04716386	      4.77689283	      0.00000000	     33.11525605	     13.87505314	     -0.73623753	     18.41603704	    -14.65531249	    -11.27828398	      0.00000000	    -26.21381261	     -9.78038574	     -4.95571116	      6.23029314	      3.18197509	     34.00139315	     81.52830642	    119.62972624	      5.80865474	      0.72753843	     23.66892563	     97.23983049	    119.44163635
      0.18333330	      4.57926726	     -3.80824249	    -27.05705573	      3.02880534	      0.93123455	      0.88610412	     37.23258321	      9.73703022	    -11.84048451	     34.95461803	     12.79323679	      4.48029866	      0.00000000	     33.08621981	     13.69227365	     -0.76102300	     19.94755484	    -13.93550788	    -10.72206947	      0.00000000	    -26.61249750	     -9.62161779	     -4.80150614	      5.57853168	      3.75844982	     33.28827755	     81.85157382	    119.74817918	      5.77944560	      0.48515478	     23.43966829	     96.63662767	    119.54702059
